<?xml version="1.0" encoding="UTF-8"?>
<svg width="160px" height="69px" viewBox="0 0 160 69" version="1.1" xmlns="http://www.w3.org/2000/svg" xmlns:xlink="http://www.w3.org/1999/xlink">
    <title>Logo-Intact-White</title>
    <g id="Investors" stroke="none" stroke-width="1" fill="none" fill-rule="evenodd">
        <g id="Logo-Intact-White" fill="#FFFFFF">
            <g id="Group-7" transform="translate(21.000000, 12.000000)">
                <path d="M38.3348523,21.6455403 C38.3348523,17.4254558 37.1911004,16.1032179 36.3496196,15.1991945 C34.9035967,13.6889999 32.5586004,12.727412 30.150014,12.727412 C29.1277803,12.727412 25.0340545,12.8490823 22.0244103,17.0669863 L22.0244103,13.4504563 L12.3979046,13.4504563 L12.3979046,14.7168742 L16.3082642,14.7168742 L16.3082642,37.012195 L13.7224093,37.012195 L12.3979046,37.012195 L9.80987194,37.012195 L9.80987194,13.4504563 L0.059670224,13.4504563 L0.059670224,14.7168742 L4.15296048,14.7168742 L4.15296048,37.012195 L0,37.012195 L0,38.274688 L12.3979046,38.274688 L13.7224093,38.274688 L26.0584659,38.274688 L26.0584659,37.012195 L22.0244103,37.012195 L22.0244103,26.4669988 C22.0862583,21.8884448 22.1459285,18.2719149 24.9722065,15.9196222 C26.1181362,15.0199597 27.5023111,14.4739696 28.8272514,14.4739696 C29.7301447,14.4739696 31.7750476,14.7787996 32.3778475,17.2440406 C32.4967524,17.8497756 32.5586004,18.3316598 32.6182706,20.8012618 L32.6182706,37.012195 L28.8272514,37.012195 L28.8272514,38.274688 L42.3070599,38.274688 L42.3070599,37.012195 L38.3348523,37.012195 L38.3348523,21.6455403 Z" id="Fill-1"></path>
                <path d="M78.1136805,37.2526138 C76.72907,37.2526138 76.72907,35.8026002 76.72907,33.757318 L76.72907,21.1629148 C76.72907,18.874728 76.72907,16.8852658 75.0426239,15.1365277 C73.5408507,13.6886946 70.7102172,12.7288511 67.824269,12.7288511 C61.745746,12.7288511 57.8314665,16.1622215 57.8314665,19.1158881 C57.8314665,20.6212857 58.8558779,21.945704 60.4787338,21.945704 C62.1037674,21.945704 63.249697,20.6810306 63.249697,19.3587927 C63.249697,17.9685241 61.9844269,17.1857348 61.9844269,16.4631266 C61.9844269,15.558667 64.2100827,13.9315992 66.919198,13.9315992 C70.8914056,13.9315992 71.0129238,16.761415 71.1340065,18.5123336 L71.1340065,24.5387207 C68.9066085,24.5387207 65.5946933,24.7794448 62.9491682,25.562234 C58.9155481,26.8269075 56.1489404,29.4155632 56.1489404,33.0944547 C56.1489404,33.3883822 56.1742022,33.6700991 56.208175,33.9452746 C55.9869161,35.0389991 55.3884717,37.0711985 52.6601922,37.0711985 C49.6483703,37.0711985 49.7102183,34.5401073 49.7102183,32.6718793 L49.7102183,14.7165689 L56.1489404,14.7165689 L56.1489404,13.449715 L49.7102183,13.449715 L49.7102183,3.44832842 L48.8073251,3.44832842 C48.5046185,4.71300187 48.0830069,6.52104882 45.7380107,9.35304517 C44.2323175,11.2212731 42.4239177,12.9102663 40.2004397,13.8696738 L40.2004397,14.7165689 L44.1129771,14.7165689 L44.1129771,29.9018083 C44.1129771,32.9727844 44.1129771,34.3011276 44.5942588,35.4441307 C45.4975876,37.8561683 47.9000763,38.9991714 50.8539702,38.9991714 C54.4084862,38.9991714 56.0422308,37.4170213 56.8432056,35.89418 C57.9355627,37.8880032 60.2400529,38.9991714 62.9491682,38.9991714 C67.0407162,38.9991714 69.6901613,36.6490593 71.0129238,33.9984781 C71.1340065,35.2034067 71.3130171,36.7088042 72.6976277,37.8561683 C73.5983432,38.5792126 74.8614355,38.9991714 76.188118,38.9991714 C78.7143027,38.9991714 80.0984776,37.6128277 80.7012776,37.0136341 L79.977395,36.1671751 C79.5575257,36.527389 78.8972333,37.2526138 78.1136805,37.2526138 L78.1136805,37.2526138 Z M71.1340065,27.7906759 C71.0129238,30.8638324 70.8914056,32.9727844 68.9680209,34.8427567 C68.423149,35.3228965 67.2811393,36.22692 65.5946933,36.22692 C63.6713085,36.22692 61.8054163,34.964427 61.8054163,32.0107603 C61.8054163,27.0676315 66.440094,25.6839043 71.1340065,25.6241594 L71.1340065,27.7906759 Z" id="Fill-3"></path>
                <path d="M92.8589333,37.6716568 C89.7303842,37.6716568 88.1031729,35.9272796 87.4428805,33.9378174 C86.8379028,32.2488242 86.8379028,29.9628179 86.8379028,27.9131747 C86.8379028,25.1984878 86.897573,19.6561654 87.8601365,17.3064893 C89.0657363,14.3528226 91.5914855,13.9328638 93.278367,13.9328638 C96.5284343,13.9328638 98.0323853,15.4382613 98.0323853,15.9798905 C98.0323853,16.2210506 97.9152225,16.3422848 97.7340341,16.583445 C97.2527524,17.0675096 96.5284343,18.0290976 96.5284343,19.4132608 C96.5284343,21.0425091 97.6103382,22.609832 99.35689,22.609832 C101.101264,22.609832 102.428382,21.161999 102.428382,19.2362066 C102.428382,16.2210506 98.9949487,12.7279353 93.3977075,12.7279353 C86.2969508,12.7279353 80.2802758,18.3321831 80.2802758,26.1051278 C80.2802758,33.2125926 85.6366584,39 92.6777449,39 C99.1761371,39 102.366534,34.481627 103.205402,30.199181 L101.706242,30.199181 C100.860841,33.8161471 97.9152225,37.6716568 92.8589333,37.6716568" id="Fill-5"></path>
                <path d="M118.67506,33.6373921 C118.491694,34.6011605 118.074438,37.0707624 115.066971,37.0707624 C112.057763,37.0707624 112.117433,34.5414155 112.117433,32.6714432 L112.117433,14.7156967 L118.555719,14.7156967 L118.555719,13.4488428 L112.117433,13.4488428 L112.117433,3.44745623 L111.211926,3.44745623 C110.911833,4.71212968 110.490221,6.52061272 108.145225,9.35478955 C106.639532,11.2204009 104.83331,12.9093941 102.605476,13.8714182 L102.605476,14.7156967 L106.518014,14.7156967 L106.518014,29.9035527 C106.518014,32.9719122 106.518014,34.3006915 106.999295,35.4436946 C107.904366,37.8574766 110.311211,38.9982992 113.259007,38.9982992 C118.85407,38.9982992 119.699471,35.0813003 120,33.6373921 L118.67506,33.6373921 Z" id="Fill-7"></path>
                <path d="M6.51516092,8.22081355 C8.77914504,8.22081355 10.6215176,6.3826761 10.6215176,4.11149701 C10.6215176,1.84031792 8.77914504,0 6.51516092,0 C4.24899905,0 2.40880419,1.84031792 2.40880419,4.11149701 C2.40880419,6.3826761 4.24899905,8.22081355 6.51516092,8.22081355" id="Fill-9"></path>
            </g>
            <polygon id="Fill-11" points="24 69 0 69 0 0 24 0 24 7.23672125 7.38553771 7.23672125 7.38553771 61.7632787 24 61.7632787"></polygon>
            <polygon id="Fill-13" points="160 69 136 69 136 61.7632787 152.616683 61.7632787 152.616683 7.23672125 136 7.23672125 136 0 160 0"></polygon>
        </g>
    </g>
</svg>