<?xml version="1.0" encoding="utf-8"?>
<!-- Generator: Adobe Illustrator 19.1.0, SVG Export Plug-In . SVG Version: 6.00 Build 0)  -->
<svg version="1.1" id="Layer_1" xmlns="http://www.w3.org/2000/svg" xmlns:xlink="http://www.w3.org/1999/xlink" x="0px" y="0px"
	 viewBox="0 0 156 45" style="enable-background:new 0 0 156 45;" xml:space="preserve">
<style type="text/css">
	.st0{fill:#FFFFFF;}
</style>
<g>
	<path class="st0" d="M15.1,10.6V11c-0.7,0.1-0.6,0.9-0.6,1.8l0.1,1.4c-0.2,0.1-0.5,0.1-0.7,0.2c-1,0.3-2.3,0.6-3.3,0.6
		c-3.4,0-6.2-1.8-6.2-5.5C4.4,6,7,3.9,10.7,3.9c1.3,0,2.7,0.3,4,0.7c-0.2,0.8-0.2,1.5-0.3,2.3h-0.4c0-1,0.2-1.3-0.7-1.8
		c-0.6-0.3-1.4-0.6-2.5-0.6C7.8,4.5,6,6.4,6,9.1c0,3.1,1.8,5.2,4.9,5.2c1.2,0,2-0.2,2.2-0.6c0.1-0.5,0-2.1,0-2.4
		c0-0.3-0.7-0.3-1.7-0.4v-0.5H15.1L15.1,10.6z"/>
	<path class="st0" d="M17.6,6c0-1.2,0-1.3-1.5-1.4V4.1c0.9,0,1.7,0.1,2.6,0.1c0.9,0,1.8,0,2.7-0.1c2.1-0.1,3.1,1,3.1,2.3
		c0,1.7-1.5,2.7-3,2.9l3.5,4.5c0.2,0.3,0.6,0.4,0.9,0.4v0.5c-0.3,0-0.7-0.1-1-0.1s-0.7,0-1,0.1c-0.2-0.3-0.4-0.6-0.6-0.9l-3.6-4.7
		L19.6,9c0.5,0,0.9,0,1.4-0.1c1.1-0.2,2-1,2-2.1c0-1.6-1.2-2.1-2.4-2.1c-0.5,0-1.1,0.1-1.5,0.2C19,5.2,19,5.5,19,6v7
		c0,1.2,0,1.3,1.5,1.4v0.5c-0.7,0-1.5-0.1-2.2-0.1c-0.7,0-1.5,0-2.2,0.1v-0.5c1.5-0.1,1.5-0.2,1.5-1.4V6L17.6,6z"/>
	<path class="st0" d="M29.2,12.7c0,0.5,0,0.9,0.1,1.3c0.6,0.1,1.3,0.1,2.1,0.1c0.8,0,1.7,0,2.5-0.3c0.1-0.2,0.2-0.5,0.2-0.8l0.1-0.8
		h0.5c-0.1,0.3-0.2,0.7-0.2,1.2v1.3c-0.6,0.1-1.6,0.1-2.5,0.1c-0.9,0-1.8-0.1-2.7-0.1c-0.9,0-1.8,0-2.8,0.1v-0.5
		c0.8,0,1.3-0.4,1.3-1.4V6c0-1.2,0-1.3-1.5-1.4V4.1c0.9,0,1.8,0.1,2.8,0.1c0.9,0,1.9,0,2.8-0.1c1,0,2,0,2.5,0.1
		c-0.2,0.5-0.2,1-0.2,1.5c0,0.3,0,0.6,0,0.9h-0.5c0-0.6-0.1-1-0.2-1.5c-0.7-0.2-1.5-0.3-2.3-0.3c-0.7,0-1.4,0-1.9,0.1
		c-0.1,0.4-0.1,0.7-0.1,1.3V9c3.3,0,3.5,0.2,3.6-1.3h0.5v3.5h-0.5c0-1.7-0.1-1.6-3.6-1.5V12.7L29.2,12.7z"/>
	<path class="st0" d="M45.2,12.7c0.2,0.5,0.4,1,0.8,1.4c0.2,0.2,0.5,0.2,0.8,0.3v0.5c-0.7,0-1.3-0.1-2-0.1c-0.7,0-1.4,0-2,0.1v-0.5
		c0.4,0,0.8,0,1.1-0.2c0.2-0.1,0.2-0.4,0.1-0.6l-0.9-2.2h-4.3c-0.2,0.4-1,2.2-1,2.6c0,0.5,0.7,0.4,1.3,0.5v0.5
		c-0.6,0-1.2-0.1-1.8-0.1s-1.2,0-1.8,0.1v-0.5c0.9-0.2,1,0,1.3-0.8l0.7-1.6l2.1-4.6c0.5-1.1,1-2.2,1.4-3.3h0.5L45.2,12.7L45.2,12.7z
		 M42.8,10.6l-1.9-4.6L39,10.6H42.8L42.8,10.6z"/>
	<path class="st0" d="M51.1,6.4c0-0.6,0-1.1-0.1-1.5L48.7,5c-0.3,0-0.5,0.1-0.5,0.5C48.1,5.8,48,6.2,48,6.6h-0.5c0-0.3,0-0.6,0-0.9
		c0-0.5,0-1.1-0.1-1.6c1.5,0,2.9,0.1,4.4,0.1c1.5,0,2.9,0,4.4-0.1c0,0.6-0.1,1.1-0.1,1.6c0,0.3,0,0.6,0,0.9h-0.5
		c0-0.4-0.1-0.8-0.2-1.2C55.5,5,55.3,5,55,5l-2.4-0.1c0,0.5,0,0.9-0.1,1.5V13c0,1.2,0,1.3,1.5,1.4v0.5c-0.7,0-1.5-0.1-2.2-0.1
		c-0.7,0-1.5,0-2.2,0.1v-0.5c1.5-0.1,1.5-0.2,1.5-1.4V6.4L51.1,6.4z"/>
	<polygon class="st0" points="56.9,11.4 56.8,11.4 57.2,10.3 61.2,10.3 61.3,10.4 60.8,11.4 56.9,11.4 	"/>
	<path class="st0" d="M63,5.8l-0.1-0.4c-0.2-0.7-0.3-0.8-1-0.8l-0.2,0V4.1c0.6,0,1.3,0.1,1.9,0.1c0.7,0,1.3,0,1.9-0.1v0.5
		c-1.5-0.1-1.3,0.5-1.1,1.1l0.3,1.5l1.2,5.3l1.9-4.8L69.2,4h0.5l0.5,1.4l2.6,7.1L74,8.3l0.7-2.7c0.2-0.6,0.4-1.1-1.2-1V4.1
		c0.5,0,1.1,0.1,1.6,0.1c0.5,0,1.1,0,1.6-0.1v0.5c-0.6,0-0.7,0-1,0.6l-2.2,7.3l-0.6,2.4h-0.8L71,11.7l-1.9-5.2l-2.7,6.8l-0.6,1.6
		h-0.8c-0.1-0.5-0.2-1-0.4-1.6L63,5.8L63,5.8z"/>
	<path class="st0" d="M80.2,12.7c0,0.5,0,0.9,0.1,1.3c0.6,0.1,1.3,0.1,2.1,0.1c0.8,0,1.7,0,2.5-0.3c0.1-0.2,0.2-0.5,0.2-0.8l0.1-0.8
		h0.5c-0.1,0.3-0.2,0.7-0.2,1.2v1.3c-0.6,0.1-1.6,0.1-2.5,0.1c-0.9,0-1.8-0.1-2.7-0.1c-0.9,0-1.8,0-2.8,0.1v-0.5
		c0.8,0,1.3-0.4,1.3-1.4V6c0-1.2,0-1.3-1.5-1.4V4.1c0.9,0,1.8,0.1,2.8,0.1s1.9,0,2.8-0.1c1,0,2,0,2.5,0.1c-0.2,0.5-0.2,1-0.2,1.5
		c0,0.3,0,0.6,0,0.9h-0.5c0-0.6-0.1-1-0.2-1.5c-0.7-0.2-1.5-0.3-2.3-0.3c-0.7,0-1.4,0-1.9,0.1c-0.1,0.4-0.1,0.7-0.1,1.3V9
		c3.3,0,3.5,0.2,3.6-1.3h0.5v3.5h-0.5c0-1.7-0.1-1.6-3.6-1.5V12.7L80.2,12.7z"/>
	<path class="st0" d="M92.5,6.7c0-0.6,0-1-0.2-1.2c-0.4-0.6-1.5-0.9-2.2-0.9c-1.3,0-2.3,0.9-2.3,2.2c0,3.3,6.1,0.6,6.1,4.4
		c0,2.6-2.3,3.9-4.6,3.9c-0.9,0-1.8-0.2-2.6-0.6c0.1-0.6,0.1-1.3,0.1-1.9v-0.4h0.5v0.7c0,0.3,0,0.6,0.2,0.8c0.6,0.5,1.6,0.7,2.4,0.7
		c1.4,0,2.7-0.8,2.7-2.3c0-3.7-6-0.2-6-4.7c0-2.1,1.8-3.4,3.7-3.4c1,0,2,0.3,3,0.7c0,0.2-0.1,0.5-0.1,0.7c0,0.5-0.1,0.9-0.1,1.4
		H92.5L92.5,6.7z"/>
	<path class="st0" d="M98.2,6.4c0-0.6,0-1.1-0.1-1.5L95.8,5c-0.3,0-0.5,0.1-0.5,0.5c-0.1,0.4-0.2,0.8-0.2,1.2h-0.5
		c0-0.3,0-0.6,0-0.9c0-0.5,0-1.1-0.1-1.6c1.5,0,2.9,0.1,4.4,0.1c1.5,0,2.9,0,4.4-0.1c0,0.6-0.1,1.1-0.1,1.6c0,0.3,0,0.6,0,0.9h-0.5
		c0-0.4-0.1-0.8-0.2-1.2c0-0.4-0.2-0.4-0.5-0.5l-2.4-0.1c0,0.5,0,0.9-0.1,1.5V13c0,1.2,0,1.3,1.5,1.4v0.5c-0.7,0-1.5-0.1-2.2-0.1
		s-1.5,0-2.2,0.1v-0.5c1.5-0.1,1.5-0.2,1.5-1.4V6.4L98.2,6.4z"/>
	<path class="st0" d="M14.7,37.6l0.1,1.3C16.2,39,18,39,19.6,39c1.8,0,3.7-0.1,5.5-0.6c0.1-0.3,0.2-0.7,0.3-1.1l0.8-2.9l1.1,0.1
		c-0.1,0.5-0.2,1.4-0.3,2.3l-0.4,3.6c-1.1,0.2-3.3,0.1-5.3,0.2c-1.9-0.1-3.8-0.2-5.8-0.2c-2,0-3.9,0.1-5.8,0.2v-1
		c1.6-0.3,1.8-1.3,1.8-4V20.9c0-2.6,0-2.9-3.2-3.1v-1C9.8,17,11.4,17,13,17c1.7,0,3.3-0.1,4.9-0.2v1c-3.3,0.2-3.2,0.4-3.2,3.1V37.6
		L14.7,37.6z"/>
	<path class="st0" d="M35.5,36.5c0,2.6,0,2.9,3.2,3.1v1c-1.6-0.1-3.2-0.2-4.9-0.2c-1.7,0-3.3,0.1-4.8,0.2v-1
		c3.3-0.2,3.2-0.4,3.2-3.1V20.9c0-2.6,0-2.9-3.2-3.1v-1c1.5,0.1,3.1,0.2,4.8,0.2c1.7,0,3.3-0.1,4.9-0.2v1c-3.3,0.2-3.2,0.4-3.2,3.1
		V36.5L35.5,36.5z"/>
	<path class="st0" d="M43.7,20.9c0-2.6,0-2.9-3.2-3.1v-1c2.1,0.1,4.1,0.2,6.2,0.2c2.1,0,4.2-0.1,6.2-0.2c2.1,0,4.5,0,5.6,0.2
		c-0.4,1.1-0.5,2.2-0.5,3.3c0,0.7-0.1,1.3-0.1,2h-1.1c0-1.3-0.2-2.3-0.5-3.3c-1.6-0.5-3.4-0.6-5.1-0.6c-1.5,0-3.1,0-4.2,0.2
		c-0.1,0.6-0.2,1.2-0.2,2.2v7c7.4,0.1,7.9,0.5,7.9-2.9h1.1v7.8h-1.1c0-3.8-0.2-3.6-7.9-3.4v7.1c0,2.6,0,2.9,3.2,3.1v1
		c-1.6-0.1-3.2-0.2-4.9-0.2c-1.7,0-3.3,0.1-4.8,0.2v-1c3.3-0.2,3.2-0.4,3.2-3.1V20.9L43.7,20.9z"/>
	<path class="st0" d="M65.8,35.9c0,1.2,0,2,0.2,2.9c1.3,0.2,3,0.2,4.6,0.2c1.8,0,3.7-0.1,5.5-0.6c0.2-0.5,0.3-1.1,0.4-1.7l0.3-1.9
		h1.1c-0.1,0.7-0.3,1.7-0.3,2.8v2.8c-1.3,0.2-3.5,0.1-5.6,0.2c-2-0.1-4-0.2-6.1-0.2c-2.1,0-4.1,0.1-6.1,0.2v-1
		c1.7-0.1,2.9-0.8,2.9-3.1V20.9c0-2.6,0-2.9-3.2-3.1v-1c2.1,0.1,4.1,0.2,6.2,0.2c2.1,0,4.2-0.1,6.2-0.2c2.1,0,4.5,0,5.6,0.2
		c-0.4,1.1-0.5,2.2-0.5,3.3c0,0.7-0.1,1.3-0.1,2h-1.1c0-1.3-0.2-2.3-0.5-3.3c-1.6-0.5-3.4-0.6-5.1-0.6c-1.5,0-3.1,0-4.2,0.2
		c-0.1,0.8-0.2,1.6-0.2,2.8v6.4c7.4,0.1,7.9,0.5,7.9-2.9h1.1v7.8h-1.1c0-3.8-0.2-3.6-7.9-3.4V35.9L65.8,35.9z"/>
	<path class="st0" d="M101.4,39.1c-2.1,1.2-5.5,2-7.7,2c-7.5,0-13.8-4.4-13.8-12.5c0-7.9,6.4-12.3,13.1-12.3c3,0,6,0.7,8.8,1.5
		c-0.3,1.7-0.5,3.4-0.7,5.1h-1c-0.1-2.2,0.4-3-1.6-3.9c-1.4-0.7-3-1.3-5.5-1.3c-5.6,0-9.5,4-9.5,10.1c0,6.8,4.4,11.5,11.2,11.5
		c2.4,0,4.9-0.8,6.9-2.1l0.3,0.3L101.4,39.1L101.4,39.1z"/>
	<path class="st0" d="M129.2,28c0,7.3-5.7,13.1-13.1,13.1c-6.9,0-12.1-4.8-12.1-12.5c0-6.9,4.9-12.4,12.8-12.3
		C124.1,16.4,129.2,20.4,129.2,28L129.2,28z M125.6,29c0-6.7-3-11.2-9.3-11.2c-5.9,0-8.6,4.1-8.6,9.7c0,5.9,2.8,12.2,9.5,12.2
		C122.8,39.3,125.6,35.3,125.6,29L125.6,29z"/>
	<path class="st0" d="M132.8,34.4c0,0.8,0,0.9,1,0.9v0.3c-0.5,0-1-0.1-1.5-0.1c-0.5,0-1,0-1.4,0.1v-0.3c1-0.1,1-0.1,1-0.9v-4.7
		c0-0.8,0-0.9-1-0.9v-0.3c0.5,0,0.9,0.1,1.4,0.1c0.5,0,1,0,1.5-0.1v0.3c-1,0.1-1,0.1-1,0.9V34.4L132.8,34.4z"/>
	<path class="st0" d="M140.8,34.5v-5.1c0-0.6-0.2-0.7-0.8-0.7l-0.2,0v-0.3c0.4,0,0.8,0.1,1.2,0.1c0.4,0,0.8,0,1.2-0.1v0.3l-0.2,0
		c-0.6,0-0.8,0.1-0.8,0.7v5.9l0,0.4l-0.8-0.1l-4.9-6v5c0,0.6,0.2,0.7,0.8,0.7l0.2,0v0.3c-0.4,0-0.8-0.1-1.2-0.1
		c-0.4,0-0.8,0-1.2,0.1v-0.3l0.2,0c0.6,0,0.8-0.1,0.8-0.7v-5.1c0-0.6-0.2-0.7-0.7-0.7h-0.1v-0.3c0.3,0,0.6,0.1,0.9,0.1
		c0.3,0,0.6,0,0.9-0.1L140.8,34.5L140.8,34.5z"/>
	<path class="st0" d="M149.1,35.1c-0.6,0.4-1.7,0.6-2.3,0.6c-2.3,0-4.1-1.3-4.1-3.7c0-2.4,1.9-3.7,3.9-3.7c0.9,0,1.8,0.2,2.6,0.5
		c-0.1,0.5-0.2,1-0.2,1.5h-0.3c0-0.7,0.1-0.9-0.5-1.2c-0.4-0.2-0.9-0.4-1.6-0.4c-1.7,0-2.8,1.2-2.8,3c0,2,1.3,3.4,3.4,3.4
		c0.7,0,1.5-0.2,2.1-0.6l0.1,0.1L149.1,35.1L149.1,35.1z"/>
	<path class="st0" d="M150.4,35c0-0.3,0.3-0.6,0.6-0.6c0.3,0,0.6,0.3,0.6,0.6c0,0.3-0.3,0.6-0.6,0.6C150.7,35.6,150.4,35.3,150.4,35
		L150.4,35z"/>
</g>
</svg>
