<svg xmlns="http://www.w3.org/2000/svg" width="185" height="69" viewBox="0 0 143 53.1"><path fill="#383838" d="M35.7 31.2h1.7v8.6h-1.7V31.2z"/><path fill="#383838" d="M44.7 36.3v3.5h-1.6v-3.1c0-1.1-0.4-1.5-1.1-1.5 -0.8 0-1.3 0.6-1.3 1.6v3H39v-5.9h1.6v0.8l0 0c0.5-0.6 1.2-0.9 1.9-0.9C43.8 33.8 44.7 34.5 44.7 36.3z"/><path fill="#383838" d="M45.4 39l0.8-1.1c0.5 0.5 1 0.7 1.6 0.7 0.5 0 0.7-0.2 0.7-0.5s-0.3-0.4-1.1-0.7c-1-0.3-1.8-0.8-1.8-1.9 0-1.1 0.9-1.8 2.1-1.8 0.8 0 1.5 0.2 2.1 0.7L49 35.6c-0.5-0.4-1-0.6-1.4-0.6 -0.3 0-0.6 0.1-0.6 0.4 0 0.2 0.3 0.4 0.9 0.6 1.3 0.5 2 0.7 2 1.9 0 1.1-0.7 1.8-2.3 1.8C46.9 39.9 46.1 39.6 45.4 39z"/><path fill="#383838" d="M56.5 33.9v5.9h-1.6v-0.7l0 0c-0.4 0.5-1.1 0.8-1.8 0.8 -1.3 0-2.2-0.6-2.2-2.4V34h1.6v3c0 1.1 0.3 1.4 1.1 1.4 0.7 0 1.3-0.6 1.3-1.7v-2.9h1.6V33.9z"/><path fill="#383838" d="M61.3 33.8v1.7c-0.2 0-0.3 0-0.4 0 -1 0-1.5 0.7-1.5 1.5v2.7h-1.6v-5.9h1.6v0.9l0 0c0.4-0.6 1.1-1 1.8-1C61.3 33.8 61.3 33.8 61.3 33.8z"/><path fill="#383838" d="M66.8 36.3v3.5h-1.5l-0.1-0.5 0 0c-0.4 0.3-1 0.6-1.6 0.6 -1.3 0-2-0.8-2-1.9 0-1.2 0.8-1.9 2.4-1.9h1.2c0-0.7-0.4-1-1-1 -0.5 0-1.1 0.2-1.6 0.4l-0.5-1.2c0.4-0.2 1.3-0.5 2.3-0.5C65.9 33.8 66.8 34.5 66.8 36.3zM65.3 37.9v-0.6h-1.1c-0.6 0-1 0.2-1 0.7 0 0.4 0.3 0.7 0.8 0.7C64.8 38.6 65.3 38.1 65.3 37.9z"/><path fill="#383838" d="M73.7 36.3v3.5h-1.6v-3.1c0-1.1-0.4-1.5-1.1-1.5 -0.8 0-1.3 0.6-1.3 1.6v3h-1.6v-5.9h1.6v0.8l0 0c0.5-0.6 1.2-0.9 1.9-0.9C72.9 33.8 73.7 34.5 73.7 36.3z"/><path fill="#383838" d="M74.7 36.8c0-1.8 1.3-3 3.1-3 0.9 0 1.9 0.4 2.5 1.1l-1.1 0.9c-0.3-0.4-0.8-0.6-1.4-0.6 -0.9 0-1.6 0.7-1.6 1.6 0 1 0.7 1.6 1.6 1.6 0.6 0 1.1-0.3 1.4-0.6l1.1 1c-0.5 0.6-1.4 1.1-2.6 1.1C76 39.9 74.7 38.7 74.7 36.8z"/><path fill="#383838" d="M86.5 37.3h-4.1c0.2 0.7 0.7 1.1 1.5 1.1 0.6 0 1.1-0.3 1.4-0.7l1 1c-0.5 0.6-1.4 1.1-2.5 1.1 -1.7 0-3-1.2-3-3.1 0-1.8 1.2-3 2.9-3 1.7 0 2.9 1.3 2.9 3C86.5 37 86.5 37.3 86.5 37.3zM82.3 36.2h2.6c-0.2-0.6-0.6-1-1.3-1C83 35.2 82.5 35.5 82.3 36.2z"/><path fill="#383838" d="M35.8 47.1H37V52h2.6v1h-3.8V47.1z"/><path fill="#383838" d="M40.1 47.7c0-0.4 0.3-0.7 0.7-0.7s0.7 0.3 0.7 0.7 -0.3 0.7-0.7 0.7C40.4 48.4 40.1 48.1 40.1 47.7zM40.2 48.9h1.1V53h-1.1V48.9z"/><path fill="#383838" d="M42.4 49.8H42v-0.9h0.4v-0.7c0-1 0.5-1.4 1.3-1.4 0.5 0 0.9 0.2 1.1 0.3L44.6 48c-0.2-0.1-0.5-0.2-0.6-0.2 -0.3 0-0.4 0.2-0.4 0.5v0.6h0.9v0.9h-0.9V53h-1.1L42.4 49.8 42.4 49.8z"/><path fill="#383838" d="M48.7 51.3h-2.9c0.1 0.5 0.5 0.8 1 0.8 0.4 0 0.8-0.2 1-0.5l0.7 0.7c-0.4 0.4-0.9 0.8-1.8 0.8 -1.2 0-2.1-0.8-2.1-2.1 0-1.2 0.9-2.1 2-2.1 1.2 0 2 0.9 2 2.1C48.7 51.1 48.7 51.3 48.7 51.3zM45.9 50.6h1.8c-0.1-0.4-0.4-0.7-0.9-0.7C46.3 49.8 46 50.1 45.9 50.6z"/><path fill="#383838" d="M51.4 50.4c0-0.5 0.4-1 1-1s1 0.4 1 1c0 0.5-0.4 1-1 1C51.9 51.4 51.4 50.9 51.4 50.4z"/><path fill="#383838" d="M56.4 47.1h1.2v2.6H60v-2.6h1.2V53H60v-2.3h-2.4V53h-1.2V47.1z"/><path fill="#383838" d="M66.1 51.3h-2.9c0.1 0.5 0.5 0.8 1 0.8 0.4 0 0.8-0.2 1-0.5l0.7 0.7c-0.4 0.4-0.9 0.8-1.8 0.8 -1.2 0-2.1-0.8-2.1-2.1 0-1.2 0.9-2.1 2-2.1 1.2 0 2 0.9 2 2.1C66.1 51.1 66.1 51.3 66.1 51.3zM63.2 50.6H65c-0.1-0.4-0.4-0.7-0.9-0.7C63.7 49.8 63.4 50.1 63.2 50.6z"/><path fill="#383838" d="M70.1 50.6V53h-1v-0.4l0 0C68.8 52.8 68.4 53 68 53c-0.9 0-1.4-0.5-1.4-1.3s0.5-1.3 1.6-1.3h0.9c0-0.5-0.3-0.7-0.7-0.7 -0.4 0-0.8 0.1-1.1 0.3l-0.4-0.8c0.3-0.1 0.9-0.4 1.6-0.4C69.5 48.9 70.1 49.4 70.1 50.6zM69.1 51.7v-0.4h-0.7c-0.4 0-0.7 0.2-0.7 0.5s0.2 0.5 0.6 0.5C68.7 52.2 69.1 51.9 69.1 51.7z"/><path fill="#383838" d="M71 46.9h1.1V53H71V46.9z"/><path fill="#383838" d="M73.2 51.7v-1.9h-0.5v-0.9h0.5v-1.3l1.1-0.1V49h1.1v0.9h-1.1v1.7c0 0.4 0.1 0.5 0.4 0.5 0.1 0 0.3 0 0.5-0.1l0.3 0.9c-0.3 0.1-0.5 0.3-1.1 0.3C73.7 53.1 73.2 52.7 73.2 51.7z"/><path fill="#383838" d="M80 50.6V53h-1.1v-2.2c0-0.8-0.3-1-0.8-1 -0.6 0-1 0.4-1 1.1V53H76v-6.2h1.1v2.6l0 0c0.3-0.4 0.8-0.6 1.3-0.6C79.3 48.9 80 49.3 80 50.6z"/><path fill="#383838" d="M83 50.4c0-0.5 0.4-1 1-1s1 0.4 1 1c0 0.5-0.4 1-1 1S83 50.9 83 50.4z"/><path fill="#383838" d="M91.1 53l-1.3-2h-0.7v2H88v-5.9h2.3c1.4 0 2.1 0.8 2.1 2 0 1-0.5 1.5-1.2 1.8l1.5 2.2L91.1 53 91.1 53zM89.1 50h0.8c0.7 0 1.1-0.4 1.1-0.9s-0.4-0.9-1.1-0.9H89L89.1 50 89.1 50z"/><path fill="#383838" d="M96.9 51.3H94c0.1 0.5 0.5 0.8 1 0.8 0.4 0 0.8-0.2 1-0.5l0.7 0.7c-0.4 0.4-0.9 0.8-1.8 0.8 -1.2 0-2.1-0.8-2.1-2.1 0-1.2 0.9-2.1 2-2.1 1.2 0 2 0.9 2 2.1C96.9 51.1 96.9 51.3 96.9 51.3zM94 50.6h1.8c-0.1-0.4-0.4-0.7-0.9-0.7C94.5 49.8 94.1 50.1 94 50.6z"/><path fill="#383838" d="M97.7 51.7v-1.9h-0.5v-0.9h0.5v-1.3l1.1-0.1V49h1.1v0.9h-1.1v1.7c0 0.4 0.1 0.5 0.4 0.5 0.1 0 0.3 0 0.5-0.1l0.3 0.9c-0.3 0.1-0.5 0.3-1.1 0.3C98.1 53.1 97.7 52.7 97.7 51.7z"/><path fill="#383838" d="M100.4 47.7c0-0.4 0.3-0.7 0.7-0.7 0.4 0 0.7 0.3 0.7 0.7s-0.3 0.7-0.7 0.7C100.7 48.4 100.4 48.1 100.4 47.7zM100.5 48.9h1.1V53h-1.1V48.9z"/><path fill="#383838" d="M105 48.9v1.2c-0.1 0-0.2 0-0.3 0 -0.7 0-1 0.5-1 1.1V53h-1.1v-4.1h1.1v0.6l0 0C103.9 49.1 104.4 48.9 105 48.9 104.9 48.9 104.9 48.9 105 48.9z"/><path fill="#383838" d="M109.3 51.3h-2.9c0.1 0.5 0.5 0.8 1 0.8 0.4 0 0.8-0.2 1-0.5l0.7 0.7c-0.4 0.4-0.9 0.8-1.8 0.8 -1.2 0-2.1-0.8-2.1-2.1 0-1.2 0.9-2.1 2-2.1 1.2 0 2 0.9 2 2.1C109.3 51.1 109.3 51.3 109.3 51.3zM106.4 50.6h1.8c-0.1-0.4-0.4-0.7-0.9-0.7C106.9 49.8 106.5 50.1 106.4 50.6z"/><path fill="#383838" d="M116.4 50.7V53h-1.1v-2.1c0-0.7-0.2-1.1-0.7-1.1s-0.8 0.4-0.8 1.1v2h-1.1v-2.1c0-0.7-0.2-1.1-0.7-1.1s-0.9 0.4-0.9 1.1v2H110v-4.1h1.1v0.5l0 0c0.3-0.4 0.8-0.6 1.2-0.6 0.5 0 1 0.2 1.2 0.7l0 0c0.3-0.4 0.8-0.7 1.4-0.7C115.9 48.9 116.4 49.4 116.4 50.7z"/><path fill="#383838" d="M121.1 51.3h-2.9c0.1 0.5 0.5 0.8 1 0.8 0.4 0 0.8-0.2 1-0.5l0.7 0.7c-0.4 0.4-0.9 0.8-1.8 0.8 -1.2 0-2.1-0.8-2.1-2.1 0-1.2 0.9-2.1 2-2.1 1.2 0 2 0.9 2 2.1C121.1 51.1 121.1 51.3 121.1 51.3zM118.2 50.6h1.8c-0.1-0.4-0.4-0.7-0.9-0.7C118.7 49.8 118.3 50.1 118.2 50.6z"/><path fill="#383838" d="M125.7 50.6V53h-1.1v-2.2c0-0.8-0.3-1-0.8-1 -0.6 0-0.9 0.4-0.9 1.1V53h-1.1v-4.1h1.1v0.5l0 0c0.3-0.4 0.8-0.6 1.3-0.6C125.1 48.9 125.7 49.3 125.7 50.6z"/><path fill="#383838" d="M126.7 51.7v-1.9h-0.5v-0.9h0.5v-1.3l1.1-0.1V49h1.1v0.9h-1.1v1.7c0 0.4 0.1 0.5 0.4 0.5 0.1 0 0.3 0 0.5-0.1l0.3 0.9c-0.3 0.1-0.5 0.3-1.1 0.3C127.1 53.1 126.7 52.7 126.7 51.7z"/><rect x="35.8" y="43.3" fill="#383838" width="107.2" height="0.3"/><path fill="#00874E" d="M41.7 6.9h-5.9V24h6c5.4 0 8.8-3.4 8.8-8.5C50.6 10.3 47 6.9 41.7 6.9zM41.5 21.1h-2.3V9.8h2.4c3.1 0 5.4 2.4 5.4 5.7C47.1 18.8 44.8 21.1 41.5 21.1z"/><path fill="#00874E" d="M0 7.7v15.4l13.4 7.7 13.4-7.7V7.7L13.4 0 0 7.7zM23.1 9.8V21l-9.7 5.6L3.6 21V9.8l9.7-5.6L23.1 9.8z"/><path fill="#00874E" d="M118.9 8.4c0 1-0.8 1.8-1.8 1.8s-1.8-0.8-1.8-1.8 0.8-1.8 1.8-1.8C118.1 6.6 118.9 7.4 118.9 8.4zM118.6 12.2h-3.1V24h3.1V12.2z"/><path fill="#00874E" d="M70.3 16.7c-1.3-0.5-1.7-0.8-1.7-1.3s0.4-0.8 1.1-0.8c1.2 0 2 0.6 2.8 1.3l1.8-1.9c-1.1-1.2-2.8-2-4.5-2 -2.5 0-4.2 1.4-4.2 3.5 0 2.3 1.8 3.3 3.6 3.8 0.2 0.1 0.4 0.1 0.6 0.2 1 0.3 1.6 0.5 1.6 1.1 0 0.3-0.2 0.9-1.4 0.9 -1.2 0-2.3-0.6-2.9-1.4L65.3 22c1.2 1.4 2.8 2.1 4.7 2.1 2.8 0 4.5-1.4 4.5-3.5C74.3 18.4 72.8 17.7 70.3 16.7z"/><path fill="#00874E" d="M138.9 16.7c-1.3-0.5-1.7-0.8-1.7-1.3s0.4-0.8 1.1-0.8c1.2 0 2 0.6 2.8 1.3l1.8-1.9c-1.1-1.2-2.8-2-4.5-2 -2.5 0-4.2 1.4-4.2 3.5 0 2.3 1.8 3.3 3.6 3.8 0.2 0.1 0.4 0.1 0.6 0.2 1 0.3 1.6 0.5 1.6 1.1 0 0.3-0.2 0.9-1.4 0.9s-2.3-0.6-2.9-1.4l-1.8 1.9c1.2 1.4 2.8 2.1 4.7 2.1 2.8 0 4.5-1.4 4.5-3.5C143 18.4 141.5 17.7 138.9 16.7z"/><path fill="#00874E" d="M79.8 8.4c0 1-0.8 1.8-1.8 1.8s-1.8-0.8-1.8-1.8S77 6.6 78 6.6 79.8 7.4 79.8 8.4zM76.1 28.5c2 0 3.4-1.4 3.4-4.1V12.2h-3.1v12c0 1.1-0.4 1.6-1.2 1.6 -0.4 0-0.7-0.1-1-0.3l-0.5 2.6C74.5 28.4 75.1 28.5 76.1 28.5L76.1 28.5z"/><path fill="#00874E" d="M89.5 12.9c-0.8-0.5-2-0.9-3.1-0.9 -1.9 0-3.5 0.7-4.5 2 0.2 0.2 1.5 1.6 1.8 1.9 0.5-0.7 0.9-1 1.6-1.2 0.3-0.1 0.5-0.1 0.8-0.1 0.4 0 0.7 0.1 1 0.2 0.7 0.3 1.1 0.9 1.1 1.7v0.8c-0.1 0-1-0.5-2.6-0.5 -2.5 0-4.3 1.6-4.3 3.8 0 2.1 1.6 3.7 3.8 3.7 1.4 0 2.2-0.6 3-1.2h0.1v1h2.9v-7.7C91.2 14.8 90.6 13.6 89.5 12.9zM88.3 20.2c0 0.6-1.2 1.5-2.7 1.5 -0.9 0-1.5-0.6-1.5-1.4 0-0.5 0.3-1.4 1.9-1.4 1.2 0 2.4 0.4 2.4 0.4v0.9H88.3z"/><path fill="#00874E" d="M96.9 13.6L96.9 13.6l-0.1-1.4h-3.1V24h3.1v-5.3c0-2.1 1.1-3.6 3.7-3.6V12C98.9 12.1 97.6 12.5 96.9 13.6z"/><path fill="#00874E" d="M110 23L110 23l0.1 1h2.9V6.9h-3v6.4h-0.1c-0.6-0.7-2-1.2-3-1.2 -3.7 0-5.7 3.1-5.7 6.1 0 2.2 1 3.7 1.8 4.4 1.1 1 2.5 1.6 4 1.6C107.6 24.2 108.7 24 110 23zM107 21.4c-1.7 0-3-1.5-3-3.3 0-1.9 1.3-3.3 3-3.3 1.9 0 3 1.7 3 3.3C110 19.9 108.7 21.4 107 21.4z"/><path fill="#00874E" d="M124.3 13.2L124.3 13.2l-0.1-1h-3.1V24h3.1v-6.1c0-2.7 1.7-3.1 2.7-3.1 1.8 0 2.4 1.5 2.4 2.8V24h3.1v-6.3c0-3.5-1.9-5.6-5-5.6C125.2 12 124.3 13.2 124.3 13.2z"/><path fill="#00874E" d="M63.8 18c0-3.5-2.4-5.9-5.8-5.9 -3.4 0-5.8 2.5-5.8 6.1s2.5 6.1 6 6.1c2.1 0 3.9-0.8 5-2.1 -0.2-0.2-1.6-1.7-1.8-1.9 -0.6 0.6-1.6 1.3-2.9 1.3 -1.6 0-2.7-0.9-3.1-2.4h8.3C63.8 18.9 63.8 18.4 63.8 18zM55.4 16.9c0.3-1.4 1.4-2.2 2.7-2.2s2.3 0.8 2.6 2.2H55.4z"/></svg>