<svg width="78" height="90" viewBox="0 0 78 90" fill="none" xmlns="http://www.w3.org/2000/svg">
<path d="M9.2677 67.9814C11.5025 68.6798 13.8769 69.0988 16.391 69.5178C15.4133 77.4791 13.7372 87.3959 12.0611 87.2562C10.1057 86.9768 9.40737 78.0378 9.2677 67.9814Z" fill="#C7D9F9"/>
<path d="M24.7726 69.7969C24.3536 79.5739 23.5156 88.2336 21.6998 88.2336C19.7444 88.2336 18.627 77.8979 18.0684 69.6572C20.4428 69.7969 22.6775 69.9366 24.7726 69.7969Z" fill="#C7D9F9"/>
<path d="M59.2706 27.7552C59.2706 28.3139 62.3434 86.2778 56.4772 86.8365C53.125 87.1159 49.9126 53.4549 49.9126 53.4549C49.9126 53.4549 48.7952 88.2332 44.8844 88.2332C42.091 88.2332 41.2529 71.7519 40.9736 56.388C42.3703 55.2706 53.6837 45.7729 51.03 42.5605C49.2142 40.3257 45.0241 43.1192 40.8339 46.3316C40.8339 42.7001 40.8339 39.348 40.8339 36.6942C40.8339 36.4149 40.8339 36.1356 40.8339 35.9959C40.8339 35.8562 40.8339 35.5769 40.8339 35.4372C40.8339 35.0182 40.8339 34.7388 40.8339 34.3198C40.8339 33.0628 40.8339 32.0851 40.8339 31.5264C40.8339 30.828 40.8339 30.5487 40.8339 30.5487C40.6942 30.5487 40.2752 30.5487 39.4372 30.5487H39.2975C38.7388 30.5487 38.0405 30.5487 37.3421 30.5487C34.828 30.409 31.1965 30.2693 27.4254 29.8503C25.3303 29.571 23.5146 29.0123 22.2575 28.3139C20.8608 27.3362 19.4641 25.2411 18.207 22.727C19.7434 22.5874 21.4195 22.4477 23.3749 22.4477C24.6319 23.9841 26.5874 24.8221 28.6824 24.8221C30.7775 24.8221 32.5933 23.9841 33.8503 22.5874C39.2975 22.5874 44.7447 22.4477 48.0969 21.1906C58.2929 17.4195 73.3775 -1.01722 76.4503 2.33491C80.0818 5.68704 59.2706 27.7552 59.2706 27.7552Z" fill="#F4F4F4"/>
<path d="M46.5598 15.6039C50.4167 15.6039 53.5434 12.4773 53.5434 8.62032C53.5434 4.76338 50.4167 1.63672 46.5598 1.63672C42.7028 1.63672 39.5762 4.76338 39.5762 8.62032C39.5762 12.4773 42.7028 15.6039 46.5598 15.6039Z" fill="#E1F9FF"/>
<path d="M29.1008 24.5434C32.9577 24.5434 36.0844 21.4167 36.0844 17.5598C36.0844 13.7028 32.9577 10.5762 29.1008 10.5762C25.2439 10.5762 22.1172 13.7028 22.1172 17.5598C22.1172 21.4167 25.2439 24.5434 29.1008 24.5434Z" fill="#E1F9FF"/>
<path d="M41.2537 30.4093C41.2537 30.4093 41.2537 32.9234 41.1141 36.8343C39.019 37.1136 36.7842 37.3929 34.8288 37.6723C33.9908 36.9739 32.8734 36.6946 31.756 36.6946C28.8229 36.6946 26.5882 39.069 26.5882 41.8625C26.5882 43.1195 27.0072 44.3766 27.8452 45.2146C27.8452 46.8906 27.9849 48.8461 28.4039 50.8015C22.6774 48.2874 14.5764 41.3038 12.3416 44.7956C9.54817 49.1254 26.3088 59.6008 26.3088 59.6008C26.3088 59.6008 25.7501 64.21 25.6105 69.7969C16.1128 70.4952 1.02818 66.8638 1.72654 62.1149C1.72654 62.1149 12.4813 38.0913 12.3416 29.5713C12.3416 23.2861 3.96129 5.68738 8.84981 4.70968C13.459 3.87165 17.3698 24.2638 22.9567 28.0349C25.7501 29.8507 32.4544 30.13 38.4603 30.2697H39.019H39.9967C40.276 30.4093 40.695 30.4093 41.2537 30.4093Z" fill="#F4F4F4"/>
<path d="M32.8732 72.5898C32.8732 72.5898 34.27 88.2331 37.3427 88.2331C41.9519 88.2331 40.9742 56.5275 40.9742 56.5275C40.9742 56.5275 53.9637 45.9124 51.1703 42.5603C47.8182 38.3701 37.0634 51.3596 31.6162 51.639C26.4483 51.9183 14.9952 40.3256 12.0621 44.7951C9.26866 48.9852 26.0293 59.6003 26.0293 59.6003C26.0293 59.6003 22.9565 88.2331 28.9624 88.2331C32.8732 88.2331 32.8732 72.5898 32.8732 72.5898Z" fill="#F4F4F4"/>
<path d="M31.7558 47.0301C34.6099 47.0301 36.9236 44.7163 36.9236 41.8622C36.9236 39.0081 34.6099 36.6943 31.7558 36.6943C28.9016 36.6943 26.5879 39.0081 26.5879 41.8622C26.5879 44.7163 28.9016 47.0301 31.7558 47.0301Z" fill="#E1F9FF"/>
<path d="M15.9708 73.5676C14.9931 80.4115 13.5964 87.2555 12.1997 87.1158C10.384 86.9761 9.68559 80.4115 9.40625 72.3105" stroke="#073141" stroke-width="1.75" stroke-miterlimit="10" stroke-linecap="round" stroke-linejoin="round"/>
<path d="M22.6745 87.3958C22.3952 87.9545 22.1158 88.2339 21.6968 88.2339C20.1604 88.2339 19.0431 80.9709 18.4844 73.8477" stroke="#073141" stroke-width="1.75" stroke-miterlimit="10" stroke-linecap="round" stroke-linejoin="round"/>
<path d="M41.1133 34.3203V35.4377V35.9964V36.6947V41.1642" stroke="#073141" stroke-width="1.75" stroke-miterlimit="10" stroke-linecap="round" stroke-linejoin="round"/>
<path d="M43.3474 86.1384C43.7664 87.5351 44.3251 88.2335 44.8838 88.2335C48.5153 88.2335 49.7723 58.4833 49.912 54.0138M49.912 54.0138C49.912 53.5948 49.912 53.4551 49.912 53.4551M49.912 54.0138C50.331 58.204 53.4038 87.2558 56.4766 86.9764C62.3428 86.4177 59.27 28.4538 59.27 27.8951C59.27 27.8951 80.0812 5.82694 76.729 2.19547C73.6562 -1.29633 58.5717 17.2801 48.3756 21.0512C46.0012 21.8892 42.6491 22.3082 39.0176 22.4479" stroke="#073141" stroke-width="1.75" stroke-miterlimit="10" stroke-linecap="round" stroke-linejoin="round"/>
<path d="M39.7162 30.2695C39.4369 30.2695 39.1575 30.2695 38.7385 30.2695H39.7162Z" stroke="#073141" stroke-width="1.75" stroke-miterlimit="10" stroke-linecap="round" stroke-linejoin="round"/>
<path d="M46.5598 15.6039C50.4167 15.6039 53.5434 12.4773 53.5434 8.62032C53.5434 4.76338 50.4167 1.63672 46.5598 1.63672C42.7028 1.63672 39.5762 4.76338 39.5762 8.62032C39.5762 12.4773 42.7028 15.6039 46.5598 15.6039Z" stroke="#073141" stroke-width="1.75" stroke-miterlimit="10"/>
<path d="M21.1397 69.7969C12.061 69.3779 0.887237 66.1654 1.44593 61.9752C1.44593 61.9752 12.2007 37.9517 12.061 29.4317C12.061 23.1464 3.68068 5.54774 8.5692 4.57003C13.1784 3.732 17.0892 24.1241 22.6761 27.8953C25.4695 29.711 32.1738 29.9903 38.1797 30.13H38.7384H39.7161H41.2525" stroke="#073141" stroke-width="1.75" stroke-miterlimit="10" stroke-linecap="round" stroke-linejoin="round"/>
<path d="M28.2631 50.8014C22.5365 48.2873 14.4355 41.3037 12.2008 44.7955C9.40733 49.1253 26.168 59.6008 26.168 59.6008" stroke="#073141" stroke-width="1.75" stroke-miterlimit="10" stroke-linecap="round" stroke-linejoin="round"/>
<path d="M50.0523 53.8741C50.0523 53.5948 50.0523 53.4551 50.0523 53.4551C50.0523 53.4551 49.9126 53.5948 50.0523 53.8741Z" stroke="#073141" stroke-width="1.75" stroke-miterlimit="10" stroke-linecap="round" stroke-linejoin="round"/>
<path d="M32.873 72.5898C32.873 72.5898 34.2697 88.2331 37.3425 88.2331C41.9517 88.2331 40.974 56.5275 40.974 56.5275C40.974 56.5275 53.9635 45.9124 51.17 42.5603C47.8179 38.3701 37.0632 51.3596 31.6159 51.639C26.4481 51.9183 14.995 40.3256 12.0619 44.7951C9.26842 48.9852 26.0291 59.6003 26.0291 59.6003C26.0291 59.6003 22.9563 88.2331 28.9622 88.2331C32.873 88.2331 32.873 72.5898 32.873 72.5898Z" stroke="#073141" stroke-width="1.75" stroke-miterlimit="10" stroke-linecap="round" stroke-linejoin="round"/>
<path d="M31.7558 47.0301C34.6099 47.0301 36.9236 44.7163 36.9236 41.8622C36.9236 39.0081 34.6099 36.6943 31.7558 36.6943C28.9016 36.6943 26.5879 39.0081 26.5879 41.8622C26.5879 44.7163 28.9016 47.0301 31.7558 47.0301Z" stroke="#073141" stroke-width="1.75" stroke-miterlimit="10" stroke-linecap="round" stroke-linejoin="round"/>
<path d="M29.1008 24.5434C32.9577 24.5434 36.0844 21.4167 36.0844 17.5598C36.0844 13.7028 32.9577 10.5762 29.1008 10.5762C25.2439 10.5762 22.1172 13.7028 22.1172 17.5598C22.1172 21.4167 25.2439 24.5434 29.1008 24.5434Z" stroke="#073141" stroke-width="1.75" stroke-miterlimit="10"/>
</svg>
